<?xml version="1.0" standalone="no"?>
<!DOCTYPE svg PUBLIC "-//W3C//DTD SVG 20010904//EN"
 "http://www.w3.org/TR/2001/REC-SVG-20010904/DTD/svg10.dtd">
<svg version="1.0" xmlns="http://www.w3.org/2000/svg"
 width="512.000000pt" height="512.000000pt" viewBox="0 0 512.000000 512.000000"
 preserveAspectRatio="xMidYMid meet">
<metadata>
Created by potrace 1.11, written by Peter Selinger 2001-2013
</metadata>
<g transform="translate(0.000000,512.000000) scale(0.100000,-0.100000)"
fill="#000000" stroke="none">
<path d="M2623 4044 c-12 -17 -19 -20 -25 -11 -6 9 -8 9 -8 -2 0 -20 -49 -63
-62 -55 -7 5 -8 2 -3 -5 8 -14 -33 -63 -46 -55 -8 5 -13 -9 -10 -28 0 -4 -8
-5 -19 -3 -14 3 -17 -1 -13 -12 4 -10 2 -14 -4 -10 -6 4 -16 0 -23 -8 -11 -13
-10 -15 6 -9 18 5 18 5 1 -6 -9 -6 -22 -8 -29 -4 -7 4 -8 3 -4 -4 4 -7 1 -12
-6 -12 -9 0 -9 -3 2 -10 13 -8 12 -10 -3 -10 -11 0 -15 -4 -11 -12 5 -8 2 -9
-11 -4 -15 5 -16 4 -5 -9 11 -13 10 -14 -2 -10 -11 4 -18 -2 -22 -19 -4 -18
-11 -24 -23 -19 -12 5 -15 2 -10 -10 4 -10 1 -17 -6 -17 -7 0 -18 -9 -25 -21
-10 -15 -10 -19 -1 -14 8 5 10 4 5 -3 -4 -7 -15 -12 -24 -12 -15 0 -15 -2 -2
-10 11 -7 11 -10 2 -10 -7 0 -10 -5 -6 -12 4 -6 3 -8 -4 -4 -6 3 -13 -3 -17
-14 -4 -11 -11 -18 -16 -15 -5 3 -6 -2 -2 -11 4 -12 3 -15 -5 -10 -7 4 -12 1
-12 -8 0 -9 -6 -16 -12 -16 -9 0 -8 -4 2 -10 12 -8 12 -10 -5 -10 -17 0 -17
-2 -5 -10 13 -8 13 -10 -1 -10 -20 0 -31 -34 -17 -48 7 -7 4 -10 -8 -9 -15 2
-19 -5 -19 -30 0 -17 -3 -29 -6 -27 -16 9 -17 -27 -1 -36 15 -10 15 -11 -2 -6
-15 5 -17 2 -13 -14 3 -11 1 -20 -5 -20 -5 0 -6 -4 -3 -10 3 -5 0 -10 -7 -10
-9 0 -9 -3 2 -10 13 -8 12 -10 -3 -10 -10 0 -15 -5 -12 -10 4 -6 1 -18 -7 -27
-11 -14 -11 -16 1 -9 9 6 12 5 9 -5 -3 -8 -11 -13 -17 -11 -7 1 -10 -7 -7 -24
4 -20 2 -24 -10 -20 -8 3 -12 2 -9 -3 3 -5 1 -12 -4 -15 -5 -4 -8 -17 -6 -31
1 -14 -2 -25 -7 -25 -5 0 -6 -4 -3 -10 3 -5 1 -10 -5 -10 -6 0 -8 -4 -5 -10 3
-5 2 -10 -4 -10 -5 0 -8 -9 -6 -21 3 -16 0 -19 -13 -14 -9 3 -13 3 -9 -1 4 -4
1 -14 -6 -22 -9 -13 -9 -14 1 -8 6 4 12 2 12 -3 0 -6 -5 -11 -11 -11 -6 0 -9
-9 -6 -20 3 -10 0 -18 -5 -17 -6 1 -13 -4 -16 -12 -3 -9 0 -11 7 -6 9 5 9 2 0
-13 -7 -12 -16 -19 -20 -16 -4 2 -6 -7 -4 -22 2 -18 -2 -24 -11 -20 -8 3 -14
1 -14 -4 0 -6 5 -10 11 -10 5 0 7 -5 4 -10 -4 -6 -11 -8 -16 -5 -5 3 -6 0 -3
-8 3 -8 0 -18 -5 -22 -6 -3 -8 -12 -4 -18 5 -9 3 -9 -8 -1 -19 15 -61 25 -53
12 3 -5 -3 -4 -15 4 -12 7 -19 18 -17 25 3 8 -1 10 -11 6 -10 -4 -14 -2 -10 4
4 6 1 13 -7 16 -8 3 -12 16 -11 31 2 14 -1 26 -6 26 -5 0 -9 12 -9 26 0 17 -4
23 -12 18 -8 -5 -7 0 2 11 9 11 10 16 3 11 -13 -7 -17 1 -15 42 1 14 -3 20
-10 16 -7 -5 -9 -2 -5 9 3 9 1 18 -6 21 -8 3 -8 5 2 5 11 1 11 4 0 18 -8 9
-14 19 -14 22 0 3 -8 6 -17 6 -10 1 -18 -2 -18 -7 0 -4 -5 -8 -11 -8 -5 0 -7
5 -3 12 4 7 3 8 -4 4 -7 -4 -12 -15 -12 -24 0 -13 -2 -14 -9 -4 -6 10 -10 9
-14 -7 -3 -12 -9 -21 -14 -20 -18 3 -28 -1 -17 -9 6 -4 3 -14 -10 -26 -19 -19
-19 -19 -13 0 7 19 7 19 -8 0 -8 -10 -12 -23 -9 -27 2 -4 -5 -6 -17 -4 -18 4
-19 2 -7 -12 9 -12 9 -15 1 -9 -8 4 -13 2 -13 -4 0 -6 -5 -8 -12 -4 -6 4 -9 3
-6 -2 6 -12 -28 -44 -38 -36 -5 4 -2 -1 5 -11 12 -15 12 -17 -4 -11 -14 6 -16
4 -10 -6 6 -10 4 -12 -8 -7 -11 4 -14 2 -10 -9 3 -9 -1 -14 -13 -14 -16 0 -17
-2 -4 -10 13 -8 13 -10 -1 -10 -9 0 -22 -7 -29 -15 -11 -13 -10 -15 6 -9 18 5
18 5 1 -6 -9 -6 -15 -15 -12 -20 3 -5 0 -12 -6 -16 -8 -4 -9 -3 -5 4 4 7 3 12
-2 12 -15 0 -22 -28 -9 -34 7 -2 4 -5 -6 -5 -14 -1 -16 -5 -7 -21 9 -16 8 -19
-6 -13 -12 4 -15 3 -10 -5 4 -7 2 -12 -3 -12 -6 0 -11 -5 -11 -11 0 -5 6 -7
13 -3 9 6 9 5 0 -7 -11 -13 -13 -20 -13 -36 0 -4 -7 2 -16 13 -14 18 -15 18
-4 -4 9 -18 8 -27 -2 -40 -9 -11 -9 -14 -1 -8 9 5 11 2 7 -8 -3 -9 -11 -13
-16 -10 -6 4 -5 -3 1 -15 9 -16 9 -20 -2 -15 -10 3 -13 -3 -12 -25 1 -25 -1
-29 -12 -19 -11 9 -12 7 -7 -7 5 -13 4 -16 -4 -11 -9 5 -9 1 -2 -18 8 -22 7
-24 -13 -21 -21 4 -21 4 -3 -10 17 -13 17 -15 3 -15 -10 0 -14 -5 -11 -15 4
-8 1 -15 -6 -15 -6 0 -8 -5 -4 -12 5 -8 2 -9 -11 -4 -15 5 -16 4 -5 -9 7 -9 8
-15 2 -15 -5 0 -8 -10 -5 -22 3 -17 2 -19 -5 -10 -7 11 -11 8 -16 -13 -4 -14
-4 -30 -1 -35 3 -6 0 -7 -8 -4 -10 4 -16 -5 -21 -30 -5 -25 -12 -36 -24 -36
-14 0 -15 -2 -2 -10 12 -7 10 -11 -10 -19 -14 -5 -18 -10 -10 -11 11 0 10 -4
-5 -16 -20 -15 -22 -18 -24 -56 0 -12 -4 -18 -8 -15 -7 7 -37 -31 -38 -48 -2
-21 -18 -71 -27 -82 -6 -7 -8 -20 -4 -28 4 -13 2 -14 -14 -5 -18 10 -19 8 -10
-15 8 -20 6 -25 -6 -25 -11 0 -13 -6 -9 -20 4 -13 2 -20 -5 -18 -7 2 -15 -3
-18 -11 -3 -9 0 -11 9 -7 8 4 4 -1 -9 -11 -16 -13 -19 -22 -12 -29 7 -7 2 -19
-17 -38 -29 -29 -30 -31 -32 -66 0 -12 -8 -20 -18 -20 -11 0 -14 -3 -7 -8 8
-5 5 -13 -8 -27 -19 -20 -19 -20 -13 0 6 18 5 18 -5 2 -6 -9 -8 -22 -5 -27 3
-6 -1 -7 -9 -4 -10 4 -16 1 -16 -9 0 -9 -5 -19 -12 -23 -6 -4 -8 -3 -5 3 3 5
0 10 -8 10 -11 0 -12 -5 -3 -21 11 -20 10 -20 -7 -6 -11 9 -16 10 -11 2 8 -14
-18 -45 -29 -34 -5 4 -5 -1 -2 -10 4 -11 2 -17 -6 -15 -7 1 -11 -4 -9 -10 2
-12 -11 -18 -33 -13 -5 1 -4 -4 2 -11 16 -16 57 -23 47 -8 -3 6 5 4 18 -5 14
-9 28 -13 31 -9 4 3 7 2 7 -4 0 -6 -9 -13 -21 -16 -13 -4 -18 -10 -14 -17 6
-9 2 -9 -14 -1 -16 9 -20 9 -15 -2 3 -8 -3 -20 -12 -28 -10 -8 -15 -9 -11 -2
4 6 2 15 -4 19 -7 4 -9 3 -6 -3 4 -6 -1 -19 -9 -29 -9 -10 -12 -13 -9 -6 6 11
3 11 -13 1 -21 -13 -20 -35 1 -22 7 4 5 -2 -3 -12 -8 -10 -10 -16 -3 -12 6 4
14 3 17 -1 3 -5 17 -8 31 -7 14 2 28 -2 32 -7 3 -6 1 -8 -5 -4 -6 3 -14 1 -18
-5 -4 -7 -3 -9 3 -6 5 3 23 -2 40 -13 23 -13 34 -15 42 -7 8 8 11 8 11 -2 0
-11 3 -11 16 0 15 12 16 11 10 -11 -6 -19 -5 -22 3 -10 10 13 12 13 22 0 9
-12 10 -10 6 8 -4 17 -2 21 6 14 16 -13 68 -21 61 -10 -3 5 6 6 22 2 17 -4 25
-3 21 3 -3 5 0 10 8 10 8 0 12 -4 10 -8 -3 -3 6 -9 20 -11 13 -3 24 -2 23 1
-2 19 4 24 12 11 7 -11 10 -11 10 -2 0 7 5 10 10 7 8 -5 7 -12 -2 -22 -12 -15
-11 -15 9 -3 18 12 24 12 39 -1 16 -12 17 -12 12 2 -4 9 -1 16 8 16 7 0 11 -4
8 -9 -9 -15 26 -21 43 -7 14 12 15 11 8 -11 -7 -24 -7 -24 8 -5 14 19 16 19
22 3 4 -10 14 -18 22 -18 9 0 11 -5 7 -12 -5 -8 0 -7 11 2 15 12 17 12 10 1
-6 -11 -3 -13 13 -9 12 4 20 2 16 -3 -3 -5 -1 -9 5 -9 5 0 12 6 14 13 4 8 6 6
6 -4 1 -16 31 -23 31 -6 0 5 6 5 13 -2 10 -8 17 -7 25 1 9 9 12 9 12 -2 0 -11
3 -11 12 -2 13 13 32 16 24 4 -2 -4 9 -8 25 -7 16 0 29 4 29 10 0 5 5 2 11 -8
10 -18 12 -18 30 -1 11 9 19 12 19 6 0 -8 7 -9 25 -2 27 10 32 2 13 -20 -7 -8
-4 -7 7 2 15 13 25 14 39 6 14 -8 17 -7 12 1 -4 6 0 11 9 11 9 0 13 -4 10 -10
-4 -6 1 -7 11 -3 10 4 15 2 11 -4 -3 -5 0 -10 8 -10 11 0 12 5 4 21 l-10 21
18 -20 c10 -11 26 -19 37 -17 11 2 16 0 12 -6 -3 -6 -1 -14 5 -18 8 -4 9 -3 5
4 -12 20 22 14 34 -5 10 -16 11 -16 5 2 -5 16 -4 18 6 8 19 -19 33 -15 18 5
-12 15 -12 16 2 5 9 -7 20 -9 24 -5 5 4 4 1 0 -7 -6 -11 -4 -13 8 -8 9 3 19 2
23 -4 4 -6 11 -6 20 2 11 9 14 8 14 -2 0 -8 6 -6 16 7 8 10 13 14 10 7 -8 -16
14 -21 47 -12 26 7 27 6 15 -8 -10 -13 -10 -15 0 -9 7 4 26 12 43 16 28 8 30
8 18 -8 -7 -9 -9 -14 -5 -10 5 4 15 3 23 -4 11 -8 12 -7 7 5 -4 12 -1 15 15
12 12 -2 26 -7 33 -11 6 -4 8 -3 5 2 -3 6 3 11 14 11 10 1 19 -3 19 -8 0 -6
-5 -7 -12 -3 -7 5 -8 3 -4 -5 6 -9 12 -8 26 4 10 9 21 12 24 7 8 -13 66 -21
66 -9 0 6 8 3 18 -6 10 -10 22 -14 26 -10 4 5 25 8 47 9 31 0 38 -3 34 -14 -5
-13 -3 -13 11 -1 19 16 53 19 61 6 3 -5 9 -3 14 4 7 11 9 10 9 -5 0 -11 5 -16
14 -13 7 3 18 1 23 -4 6 -6 10 -4 10 5 0 8 -5 12 -10 9 -6 -3 -7 -1 -3 6 5 8
13 7 28 -3 14 -10 27 -12 38 -6 9 5 22 5 30 0 9 -5 19 -5 26 1 8 7 15 6 20 -2
5 -8 3 -9 -6 -4 -9 5 -11 4 -6 -3 5 -9 12 -9 29 -1 16 9 22 9 25 -1 3 -9 6 -9
13 1 7 12 9 11 9 -1 0 -13 1 -13 10 0 6 10 10 11 10 3 0 -7 7 -13 16 -13 9 0
12 5 8 13 -4 6 3 3 16 -8 13 -11 20 -14 16 -7 -9 16 6 16 23 -1 8 -6 11 -7 8
-1 -4 7 4 11 23 10 19 -1 28 -5 26 -13 -3 -7 1 -10 9 -6 8 3 12 9 9 14 -5 8
19 3 41 -10 18 -10 40 -6 53 9 12 13 13 13 9 0 -3 -10 2 -16 14 -16 11 0 19 4
19 9 0 4 5 5 12 1 15 -10 108 -12 102 -3 -2 4 3 9 11 12 10 4 12 1 8 -11 -6
-15 -5 -15 11 -3 17 14 88 23 80 10 -2 -4 11 -4 29 0 17 4 44 4 59 0 20 -5 25
-4 22 6 -6 15 27 15 39 0 4 -6 11 -4 17 5 9 13 11 13 20 0 9 -13 12 -13 24 3
12 16 14 16 20 1 5 -13 9 -14 20 -5 8 7 23 11 33 9 11 -2 17 2 15 10 -1 8 2
11 8 7 6 -3 8 -10 6 -14 -3 -4 1 -8 9 -8 8 0 15 7 15 14 0 12 3 11 16 -1 17
-17 28 -21 20 -7 -3 5 1 12 10 15 8 3 12 2 9 -4 -8 -13 8 -13 22 1 8 8 13 8
17 0 5 -7 13 -8 24 -2 10 5 36 8 59 8 32 -2 39 1 31 11 -8 9 -7 11 6 6 10 -4
16 -1 16 7 0 11 3 11 10 -1 7 -12 10 -12 10 -1 0 7 6 11 15 8 11 -5 12 -1 5
19 -13 32 -12 43 0 24 7 -12 10 -12 10 -1 0 7 6 11 14 8 7 -3 24 2 37 10 12 9
19 11 15 5 -3 -6 -2 -14 4 -17 6 -4 9 -1 8 7 -2 7 4 13 12 13 8 0 20 6 26 14
9 11 12 12 19 1 6 -9 4 -11 -5 -5 -9 5 -11 4 -6 -4 6 -9 11 -9 22 0 7 6 12 15
9 19 -2 4 6 5 19 3 13 -3 27 0 31 7 5 8 10 8 21 -1 12 -9 13 -9 9 3 -5 12 0
15 20 13 22 -3 24 -1 14 11 -10 12 -9 13 6 8 14 -6 16 -4 10 7 -4 8 -5 11 0 7
4 -4 15 -2 23 5 13 9 14 9 8 0 -11 -19 5 -15 20 5 8 9 14 12 14 5 0 -7 11 -1
25 13 14 14 29 22 35 19 5 -3 14 4 20 15 6 11 18 20 26 20 8 0 13 4 10 9 -4 5
5 8 19 6 17 -1 25 3 25 14 0 14 2 14 9 1 6 -8 7 -19 4 -25 -4 -5 -2 -6 3 -2 5
5 10 13 10 18 3 22 5 23 14 9 9 -13 10 -13 10 0 0 13 1 13 10 0 6 -10 10 -11
10 -2 0 6 5 12 11 12 5 0 7 -4 4 -10 -11 -17 4 -11 26 11 15 15 24 18 33 10
10 -8 17 -7 27 5 10 13 10 17 0 24 -11 6 -11 9 0 13 10 4 9 6 -3 6 -10 1 -18
7 -18 14 0 8 -10 22 -22 33 l-23 19 20 -25 20 -25 -22 19 c-13 11 -23 27 -23
36 0 20 -26 34 -43 23 -7 -4 -6 1 2 11 12 15 12 17 0 14 -8 -2 -13 3 -11 10 1
6 -1 11 -5 11 -23 -4 -32 3 -26 18 4 9 2 14 -3 10 -15 -9 -35 8 -37 32 -1 14
-6 20 -15 16 -8 -3 -12 0 -9 7 2 7 -8 24 -23 38 -27 26 -45 58 -41 74 1 5 -6
3 -15 -5 -16 -13 -17 -12 -11 9 4 18 2 22 -9 18 -9 -3 -12 -1 -9 4 3 6 -1 13
-9 16 -9 3 -14 10 -11 14 3 5 1 11 -5 15 -6 4 -8 11 -5 16 3 5 -2 6 -11 2 -12
-4 -15 -3 -10 5 4 7 2 12 -3 12 -6 0 -11 5 -11 11 0 5 5 7 12 3 7 -4 8 -3 4 5
-4 6 -12 9 -17 5 -6 -3 -13 3 -16 15 -3 12 -10 18 -17 14 -6 -4 -6 0 2 9 10
13 9 16 -8 21 -15 4 -18 10 -13 24 6 16 5 17 -12 3 -17 -14 -18 -14 -7 7 11
20 10 21 -10 18 -23 -4 -23 -4 -3 12 20 15 20 15 -3 10 -13 -3 -20 -1 -16 5 4
6 3 13 -2 17 -5 3 -14 15 -21 26 -6 11 -16 19 -22 17 -9 -2 -9 3 0 19 8 15 8
19 0 15 -6 -4 -11 0 -11 8 0 9 -4 16 -10 16 -5 0 -10 6 -10 14 0 7 -10 21 -22
30 -13 9 -17 14 -10 10 11 -5 12 -2 3 15 -7 11 -17 21 -23 21 -7 0 -7 4 1 14
9 11 8 14 -6 12 -12 -1 -19 9 -24 29 -4 17 -7 26 -8 20 -2 -20 -52 67 -54 95
-1 19 -9 32 -20 36 -9 3 -15 10 -12 15 4 5 -2 9 -12 10 -10 0 -13 3 -5 6 6 2
12 9 12 14 0 6 -4 8 -9 5 -11 -7 -35 49 -27 62 6 10 -27 45 -36 37 -2 -3 -5 2
-5 10 0 8 3 12 7 10 4 -2 7 3 7 11 0 8 -6 13 -13 10 -17 -7 -25 19 -11 34 9
10 9 11 0 6 -9 -5 -13 2 -13 22 0 31 -21 57 -36 44 -4 -4 -2 2 6 12 10 13 10
17 3 12 -7 -4 -13 -2 -13 3 0 6 5 11 12 11 6 0 8 3 5 6 -4 4 -14 1 -23 -7 -16
-13 -16 -12 -4 10 11 22 10 23 -5 17 -15 -5 -16 -4 -5 9 10 12 9 15 -6 16 -18
0 -18 1 -1 7 16 7 16 8 -2 21 -11 8 -16 21 -14 32 3 11 0 19 -7 19 -7 0 -10 8
-7 20 3 11 1 23 -4 26 -5 3 -6 10 -3 16 4 7 2 8 -4 4 -8 -5 -12 2 -12 19 0 15
-7 33 -15 42 -8 8 -12 19 -9 25 4 6 0 14 -7 19 -10 6 -11 9 -1 9 6 0 12 5 12
11 0 5 -4 7 -10 4 -9 -6 -14 8 -11 28 0 4 -4 7 -9 7 -8 0 -8 6 -1 17 7 14 4
26 -13 48 -12 16 -26 37 -31 45 -8 13 -7 13 8 1 15 -12 17 -12 12 1 -4 9 -16
21 -28 27 -18 10 -19 11 -2 6 18 -6 18 -5 -3 15 -12 12 -20 25 -17 30 3 5 -3
15 -15 22 -11 7 -20 17 -20 23 0 5 -14 18 -31 27 -20 12 -28 22 -23 30 6 10 5
11 -8 1 -8 -7 -19 -9 -23 -5 -5 4 -6 0 -3 -9 5 -13 1 -15 -19 -11 -20 4 -24 2
-18 -9 5 -8 -1 -6 -13 5 -20 17 -22 18 -28 2 -5 -12 -9 -14 -14 -6 -3 6 -14 8
-23 4 -9 -3 -15 -10 -12 -14 11 -18 -26 -18 -38 0 -8 11 -17 17 -20 13 -4 -3
-7 1 -7 10 0 10 -5 17 -10 17 -6 0 -9 6 -8 13 2 6 -3 11 -9 9 -7 -1 -13 3 -13
9 0 6 -7 9 -14 6 -11 -4 -13 -1 -9 10 4 11 2 14 -5 9 -8 -5 -10 -1 -5 10 5 13
3 15 -7 9 -10 -6 -12 -4 -6 11 4 10 4 15 0 12 -8 -8 -34 16 -34 31 0 6 -9 11
-19 11 -10 0 -22 7 -25 16 -5 14 -4 15 9 4 9 -8 15 -8 15 -2 0 6 -9 13 -19 17
-11 3 -25 13 -33 23 -12 16 -11 16 7 3 11 -8 4 1 -16 20 -19 19 -26 27 -16 19
19 -14 19 -14 6 8 -8 12 -17 22 -22 22 -4 0 -5 4 -2 10 4 6 -1 7 -11 3 -12 -4
-15 -3 -10 5 4 7 2 12 -3 12 -6 0 -11 5 -11 11 0 5 5 7 12 3 7 -4 8 -3 4 5 -4
6 -11 9 -15 7 -4 -3 -13 4 -20 16 -10 16 -10 19 1 12 7 -4 2 4 -12 18 -14 13
-29 22 -33 20 -5 -2 -3 6 3 19 7 13 9 21 5 17 -11 -10 -47 60 -38 75 4 7 0 6
-10 -2 -15 -12 -17 -12 -11 3 4 9 1 16 -6 16 -7 0 -10 8 -7 20 3 12 1 17 -5
14 -5 -3 -12 3 -15 15 -3 11 -9 18 -14 15 -8 -4 -13 8 -11 27 2 15 -30 3 -45
-17z m792 -684 c3 -5 1 -10 -4 -10 -6 0 -11 5 -11 10 0 6 2 10 4 10 3 0 8 -4
11 -10z m80 -160 c3 -5 1 -10 -4 -10 -6 0 -11 5 -11 10 0 6 2 10 4 10 3 0 8
-4 11 -10z m-1459 -65 c-1 -8 -5 -17 -8 -21 -5 -4 -4 16 1 34 3 9 9 -1 7 -13z
m-1029 -1100 c0 -8 -4 -12 -9 -9 -5 3 -6 10 -3 15 9 13 12 11 12 -6z m-147
-325 c0 -5 -5 -10 -11 -10 -5 0 -7 5 -4 10 3 6 8 10 11 10 2 0 4 -4 4 -10z
m-140 -450 c8 -5 12 -11 10 -14 -3 -2 -14 2 -24 10 -22 15 -10 19 14 4z m2220
-204 c0 -2 -7 -7 -16 -10 -8 -3 -12 -2 -9 4 6 10 25 14 25 6z"/>
<path d="M2500 3950 c-8 -5 -12 -12 -9 -15 4 -3 12 1 19 10 14 17 11 19 -10 5z"/>
<path d="M2796 3847 c3 -10 9 -15 12 -12 3 3 0 11 -7 18 -10 9 -11 8 -5 -6z"/>
<path d="M3820 2404 c0 -5 7 -18 15 -28 8 -11 15 -16 15 -10 0 5 -7 18 -15 28
-8 11 -15 16 -15 10z"/>
<path d="M860 1760 c-9 -6 -10 -10 -3 -10 6 0 15 5 18 10 8 12 4 12 -15 0z"/>
</g>
</svg>
